<svg width="317" height="41" viewBox="0 0 317 41" fill="none" xmlns="http://www.w3.org/2000/svg">
<g style="mix-blend-mode:multiply">
<path d="M311.128 17.9923C319.305 20.3062 319.064 24.3612 309.637 30.2963C316.158 32.263 317.814 34.9645 314.245 37.8452C310.932 40.5235 305.074 41.3334 296.28 40.8822C256.584 38.8402 216.888 36.7867 176.65 37.0817C153.911 37.2494 131.127 36.9486 108.403 37.3131C87.6812 37.6428 67.0202 38.6088 46.329 39.2451C37.3387 39.5228 28.3334 39.812 19.3431 39.812C17.0993 39.812 13.1689 38.7766 12.9279 38.0709C12.1298 35.6644 12.6268 33.1944 12.6268 31.135C8.53068 30.5739 2.35646 30.3715 1.6035 29.4922C-0.278885 27.294 -0.158412 24.7661 0.248183 22.4002C0.323479 21.9259 5.18756 21.33 7.95843 21.2201C14.8103 20.9483 15.3073 19.6293 12.3406 17.7262C8.92222 15.5454 8.45538 13.3993 9.61493 10.8598C10.4432 9.03185 13.0032 8.66742 16.271 8.41868C52.3827 5.68832 88.5095 3.25297 125.254 1.82416C165.582 0.256518 205.85 0.609382 246.148 0.0482703C264.354 -0.20047 282.064 0.557321 299.924 1.28619C310.616 1.72004 312.739 2.90589 311.474 6.90888C311.248 7.62618 311.128 8.84674 312.077 9.04342C317.423 10.1541 316.489 11.9357 315.57 13.567C314.727 15.0595 312.724 16.4536 311.128 17.9923Z" fill="#EB6448" fill-opacity="0.4"/>
</g>
</svg>
