<svg width="16" height="271" viewBox="0 0 16 271" fill="none" xmlns="http://www.w3.org/2000/svg">
<path d="M12.6601 268.036C10.2865 265.452 6.92476 262.082 5.44629 258.417" stroke="#362722" stroke-width="5" stroke-miterlimit="1.5" stroke-linecap="round" stroke-linejoin="round"/>
<path d="M13.069 257.127C9.92548 254.203 6.26199 250.169 4.34082 245.677" stroke="#362722" stroke-width="5" stroke-miterlimit="1.5" stroke-linecap="round" stroke-linejoin="round"/>
<path d="M12.6519 245.917C10.0181 242.28 7.43181 238.618 5.10059 234.643" stroke="#362722" stroke-width="5" stroke-miterlimit="1.5" stroke-linecap="round" stroke-linejoin="round"/>
<path d="M12.5716 231.871C9.8985 228.586 7.75918 224.596 5.10059 221.276" stroke="#362722" stroke-width="5" stroke-miterlimit="1.5" stroke-linecap="round" stroke-linejoin="round"/>
<path d="M11.7752 215.282C9.21469 212.103 6.60386 208.632 4.38281 205.024" stroke="#362722" stroke-width="5" stroke-miterlimit="1.5" stroke-linecap="round" stroke-linejoin="round"/>
<path d="M11.6369 201.235C8.74758 198.662 5.9511 195.594 3.69141 192.089" stroke="#362722" stroke-width="5" stroke-miterlimit="1.5" stroke-linecap="round" stroke-linejoin="round"/>
<path d="M11.871 190.179C9.41691 187.019 6.79463 183.799 4.72852 180.178" stroke="#362722" stroke-width="5" stroke-miterlimit="1.5" stroke-linecap="round" stroke-linejoin="round"/>
<path d="M11.3701 176.35C8.71397 173.263 5.45688 169.677 4.03711 165.266" stroke="#362722" stroke-width="5" stroke-miterlimit="1.5" stroke-linecap="round" stroke-linejoin="round"/>
<path d="M10.6554 162.522C8.32175 159.124 5.58444 155.721 3.69141 151.856" stroke="#362722" stroke-width="5" stroke-miterlimit="1.5" stroke-linecap="round" stroke-linejoin="round"/>
<path d="M10.773 148.482C8.29056 144.847 5.10908 141.494 3 137.494" stroke="#362722" stroke-width="5" stroke-miterlimit="1.5" stroke-linecap="round" stroke-linejoin="round"/>
<path d="M11.3558 137.419C9.01733 133.989 6.05313 130.762 4.38281 126.674" stroke="#362722" stroke-width="5" stroke-miterlimit="1.5" stroke-linecap="round" stroke-linejoin="round"/>
<path d="M11.3884 120.613C8.91984 117.793 6.91814 114.47 4.38281 111.748" stroke="#362722" stroke-width="5" stroke-miterlimit="1.5" stroke-linecap="round" stroke-linejoin="round"/>
<path d="M12.2853 109.55C9.87784 106.525 7.36278 103.45 5.10059 100.233" stroke="#362722" stroke-width="5" stroke-miterlimit="1.5" stroke-linecap="round" stroke-linejoin="round"/>
<path d="M11.5169 95.7215C8.70523 92.5558 5.74225 89.2756 3.3457 85.5543" stroke="#362722" stroke-width="5" stroke-miterlimit="1.5" stroke-linecap="round" stroke-linejoin="round"/>
<path d="M11.6086 84.6588C9.11584 81.3962 5.74193 77.5938 4.03711 73.5027" stroke="#362722" stroke-width="5" stroke-miterlimit="1.5" stroke-linecap="round" stroke-linejoin="round"/>
<path d="M11.5165 70.6192C8.9397 67.0909 6.16901 63.1254 4.03711 59.1018" stroke="#362722" stroke-width="5" stroke-miterlimit="1.5" stroke-linecap="round" stroke-linejoin="round"/>
<path d="M10.9791 54.0237C8.18372 50.7823 5.88158 47.0658 3.69141 43.1236" stroke="#362722" stroke-width="5" stroke-miterlimit="1.5" stroke-linecap="round" stroke-linejoin="round"/>
<path d="M10.0751 39.9842C8.03623 36.4251 5.9604 32.8855 4.03711 29.2186" stroke="#362722" stroke-width="5" stroke-miterlimit="1.5" stroke-linecap="round" stroke-linejoin="round"/>
<path d="M11.1949 23.39C9.02346 20.4342 6.69949 17.142 5.10059 13.5871" stroke="#362722" stroke-width="5" stroke-miterlimit="1.5" stroke-linecap="round" stroke-linejoin="round"/>
<path d="M11.1248 12.3272C9.18578 9.26317 7.37926 6.0665 5.44629 3.00001" stroke="#362722" stroke-width="5" stroke-miterlimit="1.5" stroke-linecap="round" stroke-linejoin="round"/>
</svg>
